<svg xmlns="http://www.w3.org/2000/svg" width="214" height="45"><g transform="translate(0.583 10.287)"><path d="M 183.879 8.587 L 188.133 9.939 L 183.503 18.027 L 185.924 22.202 L 176.1 22.202 Z M 185.947 22.202 L 184.936 17.838 L 194.196 17.838 L 196.57 13.615 L 201.481 22.202 Z M 196.57 13.615 L 193.326 16.628 L 188.697 8.563 L 183.879 8.587 L 188.791 -0 Z" fill="hsl(0, 0%, 100%)"></path><path d="M 85.921 8.832 L 90.175 10.184 L 85.545 18.272 L 87.989 22.447 L 78.166 22.447 Z M 87.966 22.447 L 86.955 18.083 L 96.215 18.083 L 98.588 13.86 L 103.5 22.447 Z M 98.588 13.86 L 95.345 16.873 L 90.715 8.808 L 85.921 8.832 L 90.809 0.245 Z M 7.755 8.832 L 12.033 10.184 L 7.403 18.272 L 9.824 22.447 L 0 22.447 Z M 9.8 22.447 L 8.813 18.083 L 18.049 18.083 L 20.423 13.86 L 25.335 22.447 Z M 20.423 13.86 L 17.18 16.873 L 12.55 8.808 L 7.755 8.832 L 12.644 0.245 Z" fill="hsl(0, 0%, 100%)"></path><path d="M 123.124 42.04 L 123.5 42.04" fill="hsl(0, 0%, 100%)"></path><g transform="translate(40.023 0.03)"><path d="M 19.859 6.738 L 18.261 0.476 L 34.735 0.476 L 37.508 5.125 L 33.442 12.194 L 30.622 9.086 L 38.284 22.417 L 32.831 22.417 L 27.497 13.095 L 31.492 6.098 L 36.098 5.125 L 25.57 5.125 L 24.582 1.614 L 24.582 22.417 L 19.859 22.417 Z M 143.427 1.246 L 130.853 23.187 L 130.477 23.187 L 117.904 1.246 L 123.38 1.246 L 131.911 16.095 L 131.441 12.703 L 137.481 2.219 L 134.12 5.895 L 129.913 5.895 L 132.569 1.246 L 138.35 1.246 Z M 17.579 6.738 L 12.62 4.793 L 11.163 4.793 L 11.163 22.417 L 6.439 22.417 L 6.439 5.505 L 9.918 4.793 L 4.959 4.793 L 0 6.738 L 1.598 0.476 L 15.981 0.476 Z M 84.584 0.231 L 89.308 0.231 L 89.308 22.172 L 84.325 22.172 L 73.256 6.019 L 74.925 10.454 L 74.925 22.172 L 70.178 22.172 L 70.178 0.231 L 75.183 0.231 L 86.37 16.598 L 84.584 11.878 Z" fill="hsl(0, 0%, 100%)"></path><path d="M 116.202 11.552 C 116.202 18.478 111.666 23.104 104.851 23.104 C 98.059 23.104 93.499 18.478 93.499 11.552 C 93.499 4.602 98.059 0 104.851 0 C 111.666 0 116.202 4.602 116.202 11.552 Z M 115.238 11.552 L 111.478 11.054 C 111.29 7.187 108.658 4.649 104.851 4.649 C 101.043 4.649 98.435 7.187 98.247 11.054 L 94.463 11.552 L 98.247 12.026 C 98.435 15.893 101.043 18.454 104.851 18.454 C 108.658 18.454 111.29 15.893 111.478 12.026 Z" fill="hsl(0, 0%, 100%)"></path></g><path d="M 27.05 16.209 C 28.813 17.561 31.116 18.462 32.62 18.462 C 33.795 18.462 34.5 18.011 34.735 17.181 C 35.229 18.581 34.994 20.478 33.701 21.736 C 35.088 20.834 35.793 19.624 35.793 18.272 C 35.793 16.398 34.712 15.378 33.16 14.359 L 29.212 11.749 C 27.45 10.587 26.251 8.95 26.251 6.602 C 26.251 2.973 29.118 0.601 33.372 0.601 L 39.177 0.601 L 37.602 6.839 C 35.887 5.44 34.101 4.586 33.019 4.586 C 32.032 4.586 31.327 5.036 31.092 5.867 C 30.599 4.443 30.787 2.522 32.079 1.241 C 30.646 2.166 30.035 3.4 30.035 4.775 C 30.035 6.602 31.092 7.669 32.667 8.642 L 36.568 11.014 C 38.425 12.176 39.67 14.003 39.67 16.09 C 39.67 19.838 36.897 22.447 32.761 22.447 L 25.476 22.447 Z" fill="hsl(0, 0%, 100%)"></path></g></svg>