<svg xmlns="http://www.w3.org/2000/svg" width="117" height="60"><g transform="translate(4.163 9.48)"><path d="M 91.486 30.961 L 95.351 32.178 L 91.145 39.459 L 93.344 43.217 L 84.419 43.217 Z M 93.365 43.217 L 92.447 39.288 L 100.859 39.288 L 103.016 35.488 L 107.478 43.217 Z M 103.016 35.488 L 100.069 38.199 L 95.863 30.94 L 91.486 30.961 L 95.949 23.231 Z" fill="rgb(255,255,255)"></path><path d="M 78.057 7.73 L 81.921 8.947 L 77.715 16.228 L 79.936 19.986 L 71.011 19.986 Z M 79.914 19.986 L 78.996 16.057 L 87.408 16.057 L 89.565 12.256 L 94.027 19.986 Z M 89.565 12.256 L 86.618 14.968 L 82.412 7.708 L 78.057 7.73 L 82.498 0 Z M 7.046 7.73 L 10.931 8.947 L 6.725 16.228 L 8.924 19.986 L 0 19.986 Z M 8.903 19.986 L 8.006 16.057 L 16.397 16.057 L 18.553 12.256 L 23.016 19.986 Z M 18.553 12.256 L 15.607 14.968 L 11.401 7.708 L 7.046 7.73 L 11.486 0 Z" fill="rgb(255,255,255)"></path><path d="M 111.855 37.623 L 112.196 37.623 Z" fill="rgb(255,255,255)"></path><g transform="translate(29.122 0.235)"><path d="M 25.279 5.637 L 23.827 0 L 38.794 0 L 41.313 4.185 L 37.619 10.548 L 35.057 7.751 L 42.018 19.751 L 37.064 19.751 L 32.218 11.359 L 35.847 5.06 L 40.032 4.185 L 30.467 4.185 L 29.57 1.025 L 29.57 19.751 L 25.279 19.751 Z M 62.279 23.231 L 50.857 42.982 L 50.515 42.982 L 39.093 23.231 L 44.067 23.231 L 51.817 36.598 L 51.39 33.544 L 56.877 24.107 L 53.824 27.416 L 50.003 27.416 L 52.415 23.231 L 57.667 23.231 Z M 23.208 5.637 L 18.703 3.886 L 17.379 3.886 L 17.379 19.751 L 13.088 19.751 L 13.088 4.527 L 16.248 3.886 L 11.743 3.886 L 7.238 5.637 L 8.69 0 L 21.756 0 Z M 13.088 23.231 L 17.379 23.231 L 17.379 42.982 L 12.853 42.982 L 2.797 28.441 L 4.313 32.434 L 4.313 42.982 L 0 42.982 L 0 23.231 L 4.548 23.231 L 14.71 37.964 L 13.088 33.715 Z" fill="rgb(255,255,255)"></path><path d="M 40.288 33.117 C 40.288 39.352 36.168 43.516 29.976 43.516 C 23.806 43.516 19.664 39.352 19.664 33.117 C 19.664 26.861 23.806 22.719 29.976 22.719 C 36.168 22.719 40.288 26.861 40.288 33.117 Z M 39.413 33.117 L 35.997 32.669 C 35.826 29.189 33.435 26.904 29.976 26.904 C 26.517 26.904 24.147 29.189 23.976 32.669 L 20.539 33.117 L 23.976 33.544 C 24.147 37.025 26.517 39.331 29.976 39.331 C 33.435 39.331 35.826 37.025 35.997 33.544 Z" fill="rgb(255,255,255)"></path></g><path d="M 24.574 14.37 C 26.176 15.587 28.268 16.399 29.634 16.399 C 30.702 16.399 31.342 15.993 31.556 15.246 C 32.004 16.505 31.791 18.214 30.616 19.345 C 31.876 18.534 32.517 17.445 32.517 16.228 C 32.517 14.541 31.534 13.623 30.125 12.705 L 26.539 10.356 C 24.937 9.31 23.848 7.836 23.848 5.722 C 23.848 2.456 26.453 0.32 30.318 0.32 L 35.591 0.32 L 34.161 5.936 C 32.602 4.676 30.979 3.907 29.997 3.907 C 29.101 3.907 28.46 4.313 28.247 5.06 C 27.798 3.779 27.969 2.05 29.143 0.897 C 27.841 1.73 27.286 2.84 27.286 4.078 C 27.286 5.722 28.247 6.683 29.677 7.559 L 33.221 9.694 C 34.908 10.74 36.039 12.384 36.039 14.263 C 36.039 17.637 33.52 19.986 29.762 19.986 L 23.144 19.986 Z" fill="rgb(255,255,255)"></path></g></svg>